<mxfile host="65bd71144e">
    <diagram id="FlmswCmc56v3vRLj65B9" name="Page-1">
        <mxGraphModel dx="1132" dy="1961" grid="1" gridSize="10" guides="1" tooltips="1" connect="1" arrows="1" fold="1" page="1" pageScale="1" pageWidth="827" pageHeight="1169" math="0" shadow="0">
            <root>
                <mxCell id="0"/>
                <mxCell id="1" parent="0"/>
                <mxCell id="44" value="Contract&lt;br&gt;&lt;br&gt;&lt;br&gt;&lt;br&gt;&lt;br&gt;&lt;br&gt;&lt;br&gt;&lt;br&gt;&lt;br&gt;&lt;br&gt;&lt;br&gt;&lt;br&gt;&lt;br&gt;&lt;br&gt;&lt;br&gt;&lt;br&gt;&lt;br&gt;&lt;br&gt;&lt;br&gt;&lt;br&gt;&lt;br&gt;&lt;br&gt;&lt;br&gt;&lt;br&gt;&lt;br&gt;&lt;br&gt;&lt;br&gt;&lt;br&gt;&lt;br&gt;&lt;br&gt;&lt;br&gt;&lt;br&gt;&lt;br&gt;&lt;br&gt;&lt;br&gt;&lt;br&gt;&lt;br&gt;&lt;br&gt;&lt;br&gt;&lt;br&gt;&lt;br&gt;" style="rounded=1;whiteSpace=wrap;html=1;align=left;labelBackgroundColor=#1D1B1B;" vertex="1" parent="1">
                    <mxGeometry x="1000" y="308.5" width="150" height="591" as="geometry"/>
                </mxCell>
                <mxCell id="43" value="DynamicFeeTx&lt;br&gt;&lt;br&gt;&lt;br&gt;&lt;br&gt;&lt;br&gt;&lt;br&gt;&lt;br&gt;&lt;br&gt;&lt;br&gt;&lt;br&gt;&lt;br&gt;&lt;br&gt;&lt;br&gt;&lt;br&gt;&lt;br&gt;&lt;br&gt;&lt;br&gt;&lt;br&gt;&lt;br&gt;&lt;br&gt;&lt;br&gt;&lt;br&gt;&lt;br&gt;&lt;br&gt;&lt;br&gt;&lt;br&gt;&lt;br&gt;&lt;br&gt;&lt;br&gt;&lt;br&gt;&lt;br&gt;&lt;br&gt;&lt;br&gt;&lt;br&gt;&lt;br&gt;&lt;br&gt;" style="rounded=1;whiteSpace=wrap;html=1;align=left;labelBackgroundColor=#1D1B1B;" vertex="1" parent="1">
                    <mxGeometry x="50" y="619" width="150" height="521" as="geometry"/>
                </mxCell>
                <mxCell id="42" value="LegacyTx&lt;br&gt;&lt;br&gt;&lt;br&gt;&lt;br&gt;&lt;br&gt;&lt;br&gt;&lt;br&gt;&lt;br&gt;&lt;br&gt;&lt;br&gt;&lt;br&gt;&lt;br&gt;&lt;br&gt;&lt;br&gt;&lt;br&gt;&lt;br&gt;&lt;br&gt;&lt;br&gt;&lt;br&gt;&lt;br&gt;&lt;br&gt;&lt;br&gt;&lt;br&gt;&lt;br&gt;&lt;br&gt;&lt;br&gt;" style="rounded=1;whiteSpace=wrap;html=1;align=left;labelBackgroundColor=#1D1B1B;" vertex="1" parent="1">
                    <mxGeometry x="50" y="215" width="150" height="375" as="geometry"/>
                </mxCell>
                <mxCell id="41" value="Message&lt;br&gt;&lt;br&gt;&lt;br&gt;&lt;br&gt;&lt;br&gt;&lt;br&gt;&lt;br&gt;&lt;br&gt;&lt;br&gt;&lt;br&gt;&lt;br&gt;&lt;br&gt;&lt;br&gt;&lt;br&gt;&lt;br&gt;&lt;br&gt;&lt;br&gt;&lt;br&gt;&lt;br&gt;&lt;br&gt;&lt;br&gt;&lt;br&gt;&lt;br&gt;&lt;br&gt;&lt;br&gt;&lt;br&gt;&lt;br&gt;&lt;br&gt;&lt;br&gt;&lt;br&gt;&lt;br&gt;&lt;br&gt;&lt;br&gt;&lt;br&gt;&lt;br&gt;&lt;br&gt;&lt;br&gt;&lt;br&gt;&lt;br&gt;&lt;br&gt;" style="rounded=1;whiteSpace=wrap;html=1;align=left;labelBackgroundColor=#1D1B1B;" vertex="1" parent="1">
                    <mxGeometry x="370" y="310" width="150" height="580" as="geometry"/>
                </mxCell>
                <mxCell id="2" value="EVM" style="rounded=1;whiteSpace=wrap;html=1;labelBackgroundColor=#1D1B1B;" parent="1" vertex="1">
                    <mxGeometry x="385" y="170" width="120" height="60" as="geometry"/>
                </mxCell>
                <mxCell id="3" value="StateDB" style="rounded=1;whiteSpace=wrap;html=1;labelBackgroundColor=#1D1B1B;" parent="1" vertex="1">
                    <mxGeometry x="385" y="70" width="120" height="60" as="geometry"/>
                </mxCell>
                <mxCell id="4" value="Nonce" style="rounded=1;whiteSpace=wrap;html=1;labelBackgroundColor=#1D1B1B;" parent="1" vertex="1">
                    <mxGeometry x="80" y="240" width="90" height="30" as="geometry"/>
                </mxCell>
                <mxCell id="5" value="GasPrice" style="rounded=1;whiteSpace=wrap;html=1;labelBackgroundColor=#1D1B1B;" parent="1" vertex="1">
                    <mxGeometry x="80" y="290" width="90" height="30" as="geometry"/>
                </mxCell>
                <mxCell id="6" value="Gas" style="rounded=1;whiteSpace=wrap;html=1;labelBackgroundColor=#1D1B1B;" parent="1" vertex="1">
                    <mxGeometry x="80" y="340" width="90" height="30" as="geometry"/>
                </mxCell>
                <mxCell id="7" value="To" style="rounded=1;whiteSpace=wrap;html=1;labelBackgroundColor=#1D1B1B;" parent="1" vertex="1">
                    <mxGeometry x="80" y="390" width="90" height="30" as="geometry"/>
                </mxCell>
                <mxCell id="8" value="Value" style="rounded=1;whiteSpace=wrap;html=1;labelBackgroundColor=#1D1B1B;" parent="1" vertex="1">
                    <mxGeometry x="80" y="440" width="90" height="30" as="geometry"/>
                </mxCell>
                <mxCell id="9" value="Data" style="rounded=1;whiteSpace=wrap;html=1;labelBackgroundColor=#1D1B1B;" parent="1" vertex="1">
                    <mxGeometry x="80" y="490" width="90" height="30" as="geometry"/>
                </mxCell>
                <mxCell id="10" value="V, R, S" style="rounded=1;whiteSpace=wrap;html=1;labelBackgroundColor=#1D1B1B;" parent="1" vertex="1">
                    <mxGeometry x="80" y="540" width="90" height="30" as="geometry"/>
                </mxCell>
                <mxCell id="11" value="Nonce" style="rounded=1;whiteSpace=wrap;html=1;labelBackgroundColor=#1D1B1B;" parent="1" vertex="1">
                    <mxGeometry x="80" y="690" width="90" height="30" as="geometry"/>
                </mxCell>
                <mxCell id="12" value="GasTipCap" style="rounded=1;whiteSpace=wrap;html=1;labelBackgroundColor=#1D1B1B;" parent="1" vertex="1">
                    <mxGeometry x="80" y="740" width="90" height="30" as="geometry"/>
                </mxCell>
                <mxCell id="13" value="GasFeeCap" style="rounded=1;whiteSpace=wrap;html=1;labelBackgroundColor=#1D1B1B;" parent="1" vertex="1">
                    <mxGeometry x="80" y="790" width="90" height="30" as="geometry"/>
                </mxCell>
                <mxCell id="14" value="Gas" style="rounded=1;whiteSpace=wrap;html=1;labelBackgroundColor=#1D1B1B;" parent="1" vertex="1">
                    <mxGeometry x="80" y="840" width="90" height="30" as="geometry"/>
                </mxCell>
                <mxCell id="15" value="To" style="rounded=1;whiteSpace=wrap;html=1;labelBackgroundColor=#1D1B1B;" parent="1" vertex="1">
                    <mxGeometry x="80" y="890" width="90" height="30" as="geometry"/>
                </mxCell>
                <mxCell id="16" value="Value" style="rounded=1;whiteSpace=wrap;html=1;labelBackgroundColor=#1D1B1B;" parent="1" vertex="1">
                    <mxGeometry x="80" y="940" width="90" height="30" as="geometry"/>
                </mxCell>
                <mxCell id="17" value="Data" style="rounded=1;whiteSpace=wrap;html=1;labelBackgroundColor=#1D1B1B;" parent="1" vertex="1">
                    <mxGeometry x="80" y="990" width="90" height="30" as="geometry"/>
                </mxCell>
                <mxCell id="18" value="ChainID" style="rounded=1;whiteSpace=wrap;html=1;labelBackgroundColor=#1D1B1B;" parent="1" vertex="1">
                    <mxGeometry x="80" y="641" width="90" height="30" as="geometry"/>
                </mxCell>
                <mxCell id="19" value="AccessList" style="rounded=1;whiteSpace=wrap;html=1;labelBackgroundColor=#1D1B1B;" parent="1" vertex="1">
                    <mxGeometry x="80" y="1040" width="90" height="30" as="geometry"/>
                </mxCell>
                <mxCell id="20" value="V, R, S" style="rounded=1;whiteSpace=wrap;html=1;labelBackgroundColor=#1D1B1B;" parent="1" vertex="1">
                    <mxGeometry x="80" y="1090" width="90" height="30" as="geometry"/>
                </mxCell>
                <mxCell id="21" value="From" style="rounded=1;whiteSpace=wrap;html=1;labelBackgroundColor=#1D1B1B;" parent="1" vertex="1">
                    <mxGeometry x="400" y="389" width="90" height="30" as="geometry"/>
                </mxCell>
                <mxCell id="22" value="Nonce" style="rounded=1;whiteSpace=wrap;html=1;labelBackgroundColor=#1D1B1B;" parent="1" vertex="1">
                    <mxGeometry x="400" y="439" width="90" height="30" as="geometry"/>
                </mxCell>
                <mxCell id="23" value="Value" style="rounded=1;whiteSpace=wrap;html=1;labelBackgroundColor=#1D1B1B;" parent="1" vertex="1">
                    <mxGeometry x="400" y="489" width="90" height="30" as="geometry"/>
                </mxCell>
                <mxCell id="24" value="GasLimit" style="rounded=1;whiteSpace=wrap;html=1;labelBackgroundColor=#1D1B1B;" parent="1" vertex="1">
                    <mxGeometry x="400" y="539" width="90" height="30" as="geometry"/>
                </mxCell>
                <mxCell id="25" value="GasPrice" style="rounded=1;whiteSpace=wrap;html=1;labelBackgroundColor=#1D1B1B;" parent="1" vertex="1">
                    <mxGeometry x="400" y="589" width="90" height="30" as="geometry"/>
                </mxCell>
                <mxCell id="26" value="GasFeeCap" style="rounded=1;whiteSpace=wrap;html=1;labelBackgroundColor=#1D1B1B;" parent="1" vertex="1">
                    <mxGeometry x="400" y="639" width="90" height="30" as="geometry"/>
                </mxCell>
                <mxCell id="27" value="GasTipCap" style="rounded=1;whiteSpace=wrap;html=1;labelBackgroundColor=#1D1B1B;" parent="1" vertex="1">
                    <mxGeometry x="400" y="689" width="90" height="30" as="geometry"/>
                </mxCell>
                <mxCell id="28" value="To" style="rounded=1;whiteSpace=wrap;html=1;labelBackgroundColor=#1D1B1B;" parent="1" vertex="1">
                    <mxGeometry x="400" y="340" width="90" height="30" as="geometry"/>
                </mxCell>
                <mxCell id="40" value="StateTransition&lt;br&gt;&lt;br&gt;&lt;br&gt;&lt;br&gt;&lt;br&gt;&lt;br&gt;&lt;br&gt;&lt;br&gt;&lt;br&gt;&lt;br&gt;&lt;br&gt;&lt;br&gt;&lt;br&gt;&lt;br&gt;&lt;br&gt;&lt;br&gt;&lt;br&gt;&lt;br&gt;&lt;br&gt;&lt;br&gt;&lt;br&gt;&lt;br&gt;&lt;br&gt;" style="rounded=1;whiteSpace=wrap;html=1;align=left;labelBackgroundColor=#1D1B1B;" vertex="1" parent="1">
                    <mxGeometry x="700" y="308.5" width="150" height="341" as="geometry"/>
                </mxCell>
                <mxCell id="29" value="Data" style="rounded=1;whiteSpace=wrap;html=1;labelBackgroundColor=#1D1B1B;" parent="1" vertex="1">
                    <mxGeometry x="400" y="739" width="90" height="30" as="geometry"/>
                </mxCell>
                <mxCell id="30" value="AccessList" style="rounded=1;whiteSpace=wrap;html=1;labelBackgroundColor=#1D1B1B;" parent="1" vertex="1">
                    <mxGeometry x="400" y="789" width="90" height="30" as="geometry"/>
                </mxCell>
                <mxCell id="31" value="&lt;div style=&quot;color: rgb(212, 212, 212); font-family: Consolas, &amp;quot;Courier New&amp;quot;, monospace; font-size: 14px; line-height: 19px;&quot;&gt;SkipAccountChecks&lt;/div&gt;" style="rounded=1;whiteSpace=wrap;html=1;labelBackgroundColor=#1D1B1B;" parent="1" vertex="1">
                    <mxGeometry x="400" y="840" width="90" height="30" as="geometry"/>
                </mxCell>
                <mxCell id="32" value="msg" style="rounded=1;whiteSpace=wrap;html=1;labelBackgroundColor=#1D1B1B;" parent="1" vertex="1">
                    <mxGeometry x="730" y="398.5" width="90" height="30" as="geometry"/>
                </mxCell>
                <mxCell id="33" value="gasRemaining" style="rounded=1;whiteSpace=wrap;html=1;labelBackgroundColor=#1D1B1B;" parent="1" vertex="1">
                    <mxGeometry x="730" y="448.5" width="90" height="30" as="geometry"/>
                </mxCell>
                <mxCell id="34" value="initialGas" style="rounded=1;whiteSpace=wrap;html=1;labelBackgroundColor=#1D1B1B;" parent="1" vertex="1">
                    <mxGeometry x="730" y="498.5" width="90" height="30" as="geometry"/>
                </mxCell>
                <mxCell id="35" value="state" style="rounded=1;whiteSpace=wrap;html=1;labelBackgroundColor=#1D1B1B;" parent="1" vertex="1">
                    <mxGeometry x="730" y="548.5" width="90" height="30" as="geometry"/>
                </mxCell>
                <mxCell id="39" value="block&lt;br&gt;&lt;br&gt;&lt;br&gt;&lt;br&gt;&lt;br&gt;&lt;br&gt;" style="rounded=1;whiteSpace=wrap;html=1;align=left;labelBackgroundColor=#1D1B1B;" vertex="1" parent="1">
                    <mxGeometry x="370" y="-60" width="150" height="90" as="geometry"/>
                </mxCell>
                <mxCell id="36" value="evm" style="rounded=1;whiteSpace=wrap;html=1;labelBackgroundColor=#1D1B1B;" parent="1" vertex="1">
                    <mxGeometry x="730" y="598.5" width="90" height="30" as="geometry"/>
                </mxCell>
                <mxCell id="37" value="gp" style="rounded=1;whiteSpace=wrap;html=1;labelBackgroundColor=#1D1B1B;" parent="1" vertex="1">
                    <mxGeometry x="730" y="349.5" width="90" height="30" as="geometry"/>
                </mxCell>
                <mxCell id="38" value="gasLimit" style="rounded=1;whiteSpace=wrap;html=1;labelBackgroundColor=#1D1B1B;" vertex="1" parent="1">
                    <mxGeometry x="400" y="-30" width="90" height="30" as="geometry"/>
                </mxCell>
                <mxCell id="45" value="&lt;div style=&quot;color: rgb(212, 212, 212); font-family: Consolas, &amp;quot;Courier New&amp;quot;, monospace; font-size: 14px; line-height: 19px;&quot;&gt;caller&lt;/div&gt;" style="rounded=1;whiteSpace=wrap;html=1;labelBackgroundColor=#1D1B1B;" vertex="1" parent="1">
                    <mxGeometry x="1030" y="398.5" width="90" height="30" as="geometry"/>
                </mxCell>
                <mxCell id="46" value="&lt;div style=&quot;color: rgb(212, 212, 212); font-family: Consolas, &amp;quot;Courier New&amp;quot;, monospace; font-size: 14px; line-height: 19px;&quot;&gt;self&lt;/div&gt;" style="rounded=1;whiteSpace=wrap;html=1;labelBackgroundColor=#1D1B1B;" vertex="1" parent="1">
                    <mxGeometry x="1030" y="448.5" width="90" height="30" as="geometry"/>
                </mxCell>
                <mxCell id="47" value="&lt;div style=&quot;color: rgb(212, 212, 212); font-family: Consolas, &amp;quot;Courier New&amp;quot;, monospace; font-size: 14px; line-height: 19px;&quot;&gt;jumpdests&lt;/div&gt;" style="rounded=1;whiteSpace=wrap;html=1;labelBackgroundColor=#1D1B1B;" vertex="1" parent="1">
                    <mxGeometry x="1030" y="498.5" width="90" height="30" as="geometry"/>
                </mxCell>
                <mxCell id="48" value="&lt;div style=&quot;color: rgb(212, 212, 212); font-family: Consolas, &amp;quot;Courier New&amp;quot;, monospace; font-size: 14px; line-height: 19px;&quot;&gt;analysis&lt;/div&gt;" style="rounded=1;whiteSpace=wrap;html=1;labelBackgroundColor=#1D1B1B;" vertex="1" parent="1">
                    <mxGeometry x="1030" y="548.5" width="90" height="30" as="geometry"/>
                </mxCell>
                <mxCell id="49" value="&lt;div style=&quot;color: rgb(212, 212, 212); font-family: Consolas, &amp;quot;Courier New&amp;quot;, monospace; font-size: 14px; line-height: 19px;&quot;&gt;Code&lt;/div&gt;" style="rounded=1;whiteSpace=wrap;html=1;labelBackgroundColor=#1D1B1B;" vertex="1" parent="1">
                    <mxGeometry x="1030" y="598.5" width="90" height="30" as="geometry"/>
                </mxCell>
                <mxCell id="50" value="&lt;div style=&quot;color: rgb(212, 212, 212); font-family: Consolas, &amp;quot;Courier New&amp;quot;, monospace; font-size: 14px; line-height: 19px;&quot;&gt;CallerAddress&lt;/div&gt;" style="rounded=1;whiteSpace=wrap;html=1;labelBackgroundColor=#1D1B1B;" vertex="1" parent="1">
                    <mxGeometry x="1030" y="349.5" width="90" height="30" as="geometry"/>
                </mxCell>
                <mxCell id="51" value="&lt;div style=&quot;color: rgb(212, 212, 212); font-family: Consolas, &amp;quot;Courier New&amp;quot;, monospace; font-size: 14px; line-height: 19px;&quot;&gt;CodeHash&lt;/div&gt;" style="rounded=1;whiteSpace=wrap;html=1;labelBackgroundColor=#1D1B1B;" vertex="1" parent="1">
                    <mxGeometry x="1030" y="648.5" width="90" height="30" as="geometry"/>
                </mxCell>
                <mxCell id="52" value="&lt;div style=&quot;color: rgb(212, 212, 212); font-family: Consolas, &amp;quot;Courier New&amp;quot;, monospace; font-size: 14px; line-height: 19px;&quot;&gt;CodeAddr&lt;/div&gt;" style="rounded=1;whiteSpace=wrap;html=1;labelBackgroundColor=#1D1B1B;" vertex="1" parent="1">
                    <mxGeometry x="1030" y="698.5" width="90" height="30" as="geometry"/>
                </mxCell>
                <mxCell id="53" value="&lt;div style=&quot;color: rgb(212, 212, 212); font-family: Consolas, &amp;quot;Courier New&amp;quot;, monospace; font-size: 14px; line-height: 19px;&quot;&gt;Input&lt;/div&gt;" style="rounded=1;whiteSpace=wrap;html=1;labelBackgroundColor=#1D1B1B;" vertex="1" parent="1">
                    <mxGeometry x="1030" y="749.5" width="90" height="30" as="geometry"/>
                </mxCell>
                <mxCell id="54" value="&lt;div style=&quot;color: rgb(212, 212, 212); font-family: Consolas, &amp;quot;Courier New&amp;quot;, monospace; font-size: 14px; line-height: 19px;&quot;&gt;Gas&lt;/div&gt;" style="rounded=1;whiteSpace=wrap;html=1;labelBackgroundColor=#1D1B1B;" vertex="1" parent="1">
                    <mxGeometry x="1030" y="799.5" width="90" height="30" as="geometry"/>
                </mxCell>
                <mxCell id="55" value="&lt;div style=&quot;color: rgb(212, 212, 212); font-family: Consolas, &amp;quot;Courier New&amp;quot;, monospace; font-size: 14px; line-height: 19px;&quot;&gt;value&lt;/div&gt;" style="rounded=1;whiteSpace=wrap;html=1;labelBackgroundColor=#1D1B1B;" vertex="1" parent="1">
                    <mxGeometry x="1030" y="849.5" width="90" height="30" as="geometry"/>
                </mxCell>
                <mxCell id="56" value="" style="endArrow=classic;html=1;exitX=1;exitY=0.5;exitDx=0;exitDy=0;edgeStyle=orthogonalEdgeStyle;entryX=0;entryY=0.5;entryDx=0;entryDy=0;labelBackgroundColor=#1D1B1B;" edge="1" parent="1" source="32" target="53">
                    <mxGeometry width="50" height="50" relative="1" as="geometry">
                        <mxPoint x="630" y="610" as="sourcePoint"/>
                        <mxPoint x="680" y="560" as="targetPoint"/>
                    </mxGeometry>
                </mxCell>
                <mxCell id="57" value="" style="endArrow=classic;html=1;exitX=1;exitY=0.5;exitDx=0;exitDy=0;edgeStyle=orthogonalEdgeStyle;entryX=0;entryY=0.5;entryDx=0;entryDy=0;labelBackgroundColor=#1D1B1B;" edge="1" parent="1" source="32" target="54">
                    <mxGeometry width="50" height="50" relative="1" as="geometry">
                        <mxPoint x="830" y="423.5" as="sourcePoint"/>
                        <mxPoint x="1040" y="774.5" as="targetPoint"/>
                    </mxGeometry>
                </mxCell>
                <mxCell id="58" value="" style="endArrow=classic;html=1;exitX=1;exitY=0.5;exitDx=0;exitDy=0;edgeStyle=orthogonalEdgeStyle;entryX=0;entryY=0.5;entryDx=0;entryDy=0;labelBackgroundColor=#1D1B1B;" edge="1" parent="1" source="32" target="55">
                    <mxGeometry width="50" height="50" relative="1" as="geometry">
                        <mxPoint x="830" y="423.5" as="sourcePoint"/>
                        <mxPoint x="1040" y="824.5" as="targetPoint"/>
                    </mxGeometry>
                </mxCell>
                <mxCell id="59" value="" style="endArrow=classic;html=1;exitX=1;exitY=0.5;exitDx=0;exitDy=0;edgeStyle=orthogonalEdgeStyle;entryX=0;entryY=0.5;entryDx=0;entryDy=0;labelBackgroundColor=#1D1B1B;" edge="1" parent="1" source="3" target="35">
                    <mxGeometry width="50" height="50" relative="1" as="geometry">
                        <mxPoint x="830" y="423.5" as="sourcePoint"/>
                        <mxPoint x="1040" y="874.5" as="targetPoint"/>
                        <Array as="points">
                            <mxPoint x="640" y="100"/>
                            <mxPoint x="640" y="564"/>
                        </Array>
                    </mxGeometry>
                </mxCell>
                <mxCell id="60" value="" style="endArrow=classic;html=1;exitX=1;exitY=0.5;exitDx=0;exitDy=0;edgeStyle=orthogonalEdgeStyle;entryX=0;entryY=0.5;entryDx=0;entryDy=0;labelBackgroundColor=#1D1B1B;" edge="1" parent="1" source="2" target="36">
                    <mxGeometry width="50" height="50" relative="1" as="geometry">
                        <mxPoint x="515" y="110" as="sourcePoint"/>
                        <mxPoint x="740" y="573.5" as="targetPoint"/>
                        <Array as="points">
                            <mxPoint x="600" y="200"/>
                            <mxPoint x="600" y="614"/>
                        </Array>
                    </mxGeometry>
                </mxCell>
                <mxCell id="61" value="" style="endArrow=classic;html=1;exitX=1;exitY=0.5;exitDx=0;exitDy=0;edgeStyle=orthogonalEdgeStyle;entryX=0;entryY=0.5;entryDx=0;entryDy=0;labelBackgroundColor=#1D1B1B;" edge="1" parent="1" source="38" target="37">
                    <mxGeometry width="50" height="50" relative="1" as="geometry">
                        <mxPoint x="515" y="110" as="sourcePoint"/>
                        <mxPoint x="740" y="573.5" as="targetPoint"/>
                        <Array as="points">
                            <mxPoint x="670" y="-15"/>
                            <mxPoint x="670" y="365"/>
                        </Array>
                    </mxGeometry>
                </mxCell>
                <mxCell id="62" value="" style="endArrow=classic;html=1;edgeStyle=orthogonalEdgeStyle;entryX=0;entryY=0.5;entryDx=0;entryDy=0;exitX=1;exitY=0.5;exitDx=0;exitDy=0;labelBackgroundColor=#1D1B1B;" edge="1" parent="1" source="41" target="32">
                    <mxGeometry width="50" height="50" relative="1" as="geometry">
                        <mxPoint x="550" y="600" as="sourcePoint"/>
                        <mxPoint x="740" y="623.5" as="targetPoint"/>
                        <Array as="points">
                            <mxPoint x="560" y="600"/>
                            <mxPoint x="560" y="414"/>
                            <mxPoint x="570" y="414"/>
                        </Array>
                    </mxGeometry>
                </mxCell>
                <mxCell id="63" value="" style="endArrow=classic;html=1;entryX=0;entryY=0.5;entryDx=0;entryDy=0;edgeStyle=orthogonalEdgeStyle;labelBackgroundColor=#1D1B1B;" edge="1" parent="1" target="41">
                    <mxGeometry width="50" height="50" relative="1" as="geometry">
                        <mxPoint x="200" y="400" as="sourcePoint"/>
                        <mxPoint x="414" y="253.5" as="targetPoint"/>
                    </mxGeometry>
                </mxCell>
                <mxCell id="64" value="" style="endArrow=classic;html=1;entryX=0;entryY=0.5;entryDx=0;entryDy=0;edgeStyle=orthogonalEdgeStyle;labelBackgroundColor=#1D1B1B;" edge="1" parent="1" source="43" target="41">
                    <mxGeometry width="50" height="50" relative="1" as="geometry">
                        <mxPoint x="200" y="730" as="sourcePoint"/>
                        <mxPoint x="370" y="729" as="targetPoint"/>
                    </mxGeometry>
                </mxCell>
            </root>
        </mxGraphModel>
    </diagram>
</mxfile>